<svg xmlns="http://www.w3.org/2000/svg" xmlns:xlink="http://www.w3.org/1999/xlink" id="Layer_1" x="0" y="0" version="1.1" viewBox="0 0 800 800" xml:space="preserve" style="enable-background:new 0 0 800 800"><style type="text/css">.st0{fill:#fdb61a}</style><g><g><g><g><circle cx="169.7" cy="262.1" r="9" class="st0"/></g></g><g><g><circle cx="197.1" cy="262.1" r="9" class="st0"/></g></g><g><g><circle cx="224.4" cy="262.1" r="9" class="st0"/></g></g><g><g><path d="M309.4,419.6c0,4.6-3.8,8.4-8.4,8.4H169.8c-4.6,0-8.4-3.8-8.4-8.4v-86.2c0-4.6,3.8-8.4,8.4-8.4H301 c4.6,0,8.4,3.8,8.4,8.4V419.6z M177.4,411h116v-69h-116V411z" class="st0"/></g></g><g><g><path d="M297.9,478H172c-4.6,0-8.4-3.4-8.4-8s3.8-8,8.4-8h125.9c4.6,0,8.4,3.4,8.4,8S302.6,478,297.9,478z" class="st0"/></g></g><g><g><path d="M297.9,529H172c-4.6,0-8.4-3.9-8.4-8.5s3.8-8.5,8.4-8.5h125.9c4.6,0,8.4,3.9,8.4,8.5S302.6,529,297.9,529z" class="st0"/></g></g><g><g><path d="M485.3,478H359.5c-4.6,0-8.4-3.4-8.4-8s3.8-8,8.4-8h125.9c4.6,0,8.4,3.4,8.4,8S490,478,485.3,478z" class="st0"/></g></g><g><g><path d="M485.3,529H359.5c-4.6,0-8.4-3.9-8.4-8.5s3.8-8.5,8.4-8.5h125.9c4.6,0,8.4,3.9,8.4,8.5S490,529,485.3,529z" class="st0"/></g></g><g><g><g><path d="M348.3,331.5v86.7c0,4.6,3.8,8.4,8.4,8.4h95.7c-1-5.5-1.7-11.1-2-16.8h-85.3v-69.9h104.2 c3.9-5.9,8.3-11.5,13.3-16.8H356.7C352,323.1,348.3,326.8,348.3,331.5z" class="st0"/></g><g><path d="M521.7,512.5V558H141.3V295.1h380.4v0.7c5.4-2.3,11-4.2,16.8-5.7v-56.6c0-4.6-3.8-8.4-8.4-8.4H132.9 c-4.6,0-8.4,3.8-8.4,8.4v332.9c0,4.6,3.8,8.4,8.4,8.4h397.2c4.6,0,8.4-3.8,8.4-8.4v-48.2C532.7,516.8,527.1,514.9,521.7,512.5z M141.3,242h380.4v36.4H141.3V242z" class="st0"/></g><g><path d="M538.5,342.4c-6.1,2.9-11.7,6.7-16.8,11.3v101c5.1,4.6,10.7,8.5,16.8,11.3V342.4z" class="st0"/></g></g><g><g><g><path d="M567.9,505.5c-27.1,0-52.5-10.5-71.6-29.7c-39.5-39.5-39.5-103.8,0-143.3c19.1-19.1,44.6-29.7,71.6-29.7 c27.1,0,52.5,10.5,71.6,29.7c39.5,39.5,39.5,103.8,0,143.3C620.4,495,595,505.5,567.9,505.5z M567.9,319.3 c-22.7,0-44,8.8-60,24.9c-33.1,33.1-33.1,87,0,120c16,16,37.4,24.9,60,24.9c22.7,0,44-8.8,60-24.9c33.1-33.1,33.1-87,0-120 C611.9,328.1,590.6,319.3,567.9,319.3z" class="st0"/></g></g><g><g><path d="M700.9,542.5c-2.1,0-4.2-0.8-5.8-2.4l-42.6-42.6c-3.2-3.2-3.2-8.4,0-11.6c3.2-3.2,8.4-3.2,11.6,0 l42.6,42.6c3.2,3.2,3.2,8.4,0,11.6C705.1,541.7,703,542.5,700.9,542.5z" class="st0"/></g></g></g></g></g><g><path d="M400,800C179.4,800,0,620.6,0,400S179.4,0,400,0s400,179.4,400,400S620.6,800,400,800z M400,16.8 C188.7,16.8,16.8,188.7,16.8,400S188.7,783.2,400,783.2S783.2,611.3,783.2,400S611.3,16.8,400,16.8z" class="st0"/></g></g></svg>