<svg xmlns="http://www.w3.org/2000/svg" xmlns:xlink="http://www.w3.org/1999/xlink" id="Layer_1" x="0" y="0" version="1.1" viewBox="0 0 800 800" xml:space="preserve" style="enable-background:new 0 0 800 800"><style type="text/css">.st0{fill:#fdb61a}</style><g><g><g><g><path d="M526,323h-97.9c-4.6,0-6.1-6.5-6.1-11.1V219h17v87h87V323z" class="st0"/></g></g><g><g><path d="M461.7,401h-179c-4.6,0-8.4-3.9-8.4-8.5s3.8-8.5,8.4-8.5h179c4.6,0,8.4,3.9,8.4,8.5S466.3,401,461.7,401z" class="st0"/></g></g><g><g><path d="M461.7,459h-179c-4.6,0-8.4-3.4-8.4-8s3.8-8,8.4-8h179c4.6,0,8.4,3.4,8.4,8S466.3,459,461.7,459z" class="st0"/></g></g><g><g><path d="M461.7,521h-179c-4.6,0-8.4-3.9-8.4-8.5c0-4.6,3.8-8.5,8.4-8.5h179c4.6,0,8.4,3.9,8.4,8.5 C470.1,517.1,466.3,521,461.7,521z" class="st0"/></g></g><g><path d="M522.9,520.4l-10.9,3.6v53.6H232.3V222.4h190.8l88.9,91.3v140.6l16.8-16.8V310.2c0-2.2-0.9-4.3-2.4-5.9 l-93.7-96.2c-1.6-1.6-3.7-2.5-6-2.5H223.9c-4.6,0-8.4,3.8-8.4,8.4v372c0,4.6,3.8,8.4,8.4,8.4h296.5c4.6,0,8.4-3.8,8.4-8.4v-67.6 C527,519,525.1,519.7,522.9,520.4z" class="st0"/></g><g><g><g><g><rect width="192.9" height="31.2" x="506.8" y="392.7" class="st0" transform="matrix(0.7071 -0.7072 0.7072 0.7071 -112.0201 546.1775)"/></g></g><g><g><path d="M576,390.4c-2.1,0-4.2-0.8-5.8-2.4c-3.2-3.2-3.2-8.4,0-11.6l62.5-62.5c3.2-3.2,8.4-3.2,11.6,0 c3.2,3.2,3.2,8.4,0,11.6L581.8,388C580.2,389.6,578.1,390.4,576,390.4z" class="st0"/></g></g><g><g><polygon points="501.2 510.3 534.3 499.3 512.2 477.2" class="st0"/></g></g></g><g><g><rect width="26.7" height="31.2" x="679.3" y="303.3" class="st0" transform="matrix(0.7071 -0.7072 0.7072 0.7071 -22.5894 583.2169)"/></g></g></g></g><g><path d="M400,800C179.4,800,0,620.6,0,400S179.4,0,400,0s400,179.4,400,400S620.6,800,400,800z M400,16.8 C188.7,16.8,16.8,188.7,16.8,400S188.7,783.2,400,783.2S783.2,611.3,783.2,400S611.3,16.8,400,16.8z" class="st0"/></g></g></svg>