<?xml version="1.0" encoding="utf-8"?>
<!-- Generator: Adobe Illustrator 19.2.0, SVG Export Plug-In . SVG Version: 6.00 Build 0)  -->
<svg version="1.1" id="Layer_1" xmlns="http://www.w3.org/2000/svg" xmlns:xlink="http://www.w3.org/1999/xlink" x="0px" y="0px"
	 viewBox="0 0 800 800" style="enable-background:new 0 0 800 800;" xml:space="preserve">
<style type="text/css">
	.st0{fill:#FDB61A;}
</style>
<g>
	<g>
		<g>
			<g>
				<path class="st0" d="M582.9,543.4c-2.8,0-5.6-0.1-8.4-0.4V558H194.1V295.1h380.4v0.7v67.5c2.8-0.3,5.6-0.4,8.4-0.4
					c2.8,0,5.6,0.1,8.4,0.4V233.6c0-4.6-3.8-8.4-8.4-8.4H185.7c-4.6,0-8.4,3.8-8.4,8.4v332.9c0,4.6,3.8,8.4,8.4,8.4h397.2
					c4.6,0,8.4-3.8,8.4-8.4V543C588.5,543.2,585.7,543.4,582.9,543.4z M194.1,242h380.4v36.4H194.1V242z"/>
			</g>
		</g>
		<g>
			<g>
				<path class="st0" d="M462.6,408H191.3c-4.6,0-8.4-3.9-8.4-8.5s3.8-8.5,8.4-8.5h271.3c4.6,0,8.4,3.9,8.4,8.5S467.2,408,462.6,408
					z"/>
			</g>
		</g>
		<g>
			<g>
				<path class="st0" d="M423.4,449h-193c-4.6,0-8.4-3.9-8.4-8.5s3.8-8.5,8.4-8.5h193c4.6,0,8.4,3.9,8.4,8.5S428.1,449,423.4,449z"
					/>
			</g>
		</g>
		<g>
			<path class="st0" d="M610.8,446.2h-19.6V428c0-4.6-3.8-8.4-8.4-8.4c-4.6,0-8.4,3.8-8.4,8.4v18.2h-16.8c-4.6,0-8.4,3.8-8.4,8.4
				c0,4.6,3.8,8.4,8.4,8.4h16.8v18.2c0,4.6,3.8,8.4,8.4,8.4c4.6,0,8.4-3.8,8.4-8.4v-18.2h19.6c4.6,0,8.4-3.8,8.4-8.4
				C619.2,449.9,615.5,446.2,610.8,446.2z"/>
		</g>
		<g>
			<g>
				<path class="st0" d="M462,305.2l-264.5,92.9c-6.4,2.2-12.7,0.5-14.3-3.9c-1.5-4.4,2.4-9.7,8.7-12l264.5-92.9
					c6.4-2.2,12.7-0.5,14.3,3.9S468.4,302.9,462,305.2z"/>
			</g>
		</g>
		<g>
			<g>
				<path class="st0" d="M191.9,305.2l264.5,92.9c6.4,2.2,12.7,0.5,14.3-3.9c1.5-4.4-2.4-9.7-8.7-12l-264.5-92.9
					c-6.4-2.2-12.7-0.5-14.3,3.9C181.7,297.6,185.6,302.9,191.9,305.2z"/>
			</g>
		</g>
		<g>
			<g>
				<path class="st0" d="M423.4,493h-193c-4.6,0-8.4-4.4-8.4-9s3.8-9,8.4-9h193c4.6,0,8.4,4.4,8.4,9S428.1,493,423.4,493z"/>
			</g>
		</g>
		<g>
			<g>
				<path class="st0" d="M423.4,534h-193c-4.6,0-8.4-3.9-8.4-8.5s3.8-8.5,8.4-8.5h193c4.6,0,8.4,3.9,8.4,8.5S428.1,534,423.4,534z"
					/>
			</g>
		</g>
		<g>
			<g>
				<path class="st0" d="M476.2,293.7v265.7c0,4.6-3.9,8.4-8.5,8.4c-4.6,0-8.5-3.8-8.5-8.4V293.7c0-4.6,3.9-8.4,8.5-8.4
					C472.4,285.3,476.2,289.1,476.2,293.7z"/>
			</g>
		</g>
		<g>
			<path class="st0" d="M582.9,523.8c-38.9,0-70.6-31.7-70.6-70.6s31.7-70.6,70.6-70.6c38.9,0,70.6,31.7,70.6,70.6
				S621.8,523.8,582.9,523.8z M582.9,399.3c-29.7,0-53.8,24.2-53.8,53.8c0,29.7,24.2,53.8,53.8,53.8s53.8-24.2,53.8-53.8
				C636.7,423.5,612.6,399.3,582.9,399.3z"/>
		</g>
	</g>
	<g>
		<path class="st0" d="M400,800C179.4,800,0,620.6,0,400S179.4,0,400,0s400,179.4,400,400S620.6,800,400,800z M400,16.8
			C188.7,16.8,16.8,188.7,16.8,400S188.7,783.2,400,783.2S783.2,611.3,783.2,400S611.3,16.8,400,16.8z"/>
	</g>
</g>
</svg>
