<?xml version="1.0" encoding="utf-8"?>
<!-- Generator: Adobe Illustrator 19.2.0, SVG Export Plug-In . SVG Version: 6.00 Build 0)  -->
<svg version="1.1" id="Layer_1" xmlns="http://www.w3.org/2000/svg" xmlns:xlink="http://www.w3.org/1999/xlink" x="0px" y="0px"
	 viewBox="0 0 800 800" style="enable-background:new 0 0 800 800;" xml:space="preserve">
<style type="text/css">
	.st0{fill:#FDB61A;}
</style>
<g>
	<g>
		<g>
			<g>
				<path class="st0" d="M218.1,280.5c0-2.1,0.1-4.1,0.3-6.2h-10.8c-4.5,0-8.2,3.7-8.2,8.2c0,4.5,3.7,8.2,8.2,8.2h11.4
					C218.4,287.4,218.1,284,218.1,280.5z"/>
			</g>
			<g>
				<path class="st0" d="M592.4,274.3H340.7c0.2,2,0.3,4.1,0.3,6.2c0,3.5-0.3,6.9-0.9,10.2h252.3c4.5,0,8.2-3.7,8.2-8.2
					C600.7,278,597,274.3,592.4,274.3z"/>
			</g>
		</g>
		<g>
			<g>
				<path class="st0" d="M279.5,328.3c-26.3,0-47.8-21.4-47.8-47.8c0-26.3,21.4-47.8,47.8-47.8c26.3,0,47.8,21.4,47.8,47.8
					C327.3,306.9,305.9,328.3,279.5,328.3z M279.5,249.2c-17.3,0-31.3,14.1-31.3,31.3s14.1,31.3,31.3,31.3
					c17.3,0,31.3-14.1,31.3-31.3S296.8,249.2,279.5,249.2z"/>
			</g>
		</g>
		<g>
			<g>
				<path class="st0" d="M592.4,511.3h-252c0.4,2.7,0.6,5.4,0.6,8.2c0,2.8-0.2,5.5-0.6,8.2h252c4.5,0,8.2-3.7,8.2-8.2
					C600.7,514.9,597,511.3,592.4,511.3z"/>
			</g>
			<g>
				<path class="st0" d="M218.1,519.5c0-2.8,0.2-5.5,0.6-8.2h-11.1c-4.5,0-8.2,3.7-8.2,8.2c0,4.5,3.7,8.2,8.2,8.2h11.1
					C218.3,525,218.1,522.3,218.1,519.5z"/>
			</g>
		</g>
		<g>
			<g>
				<path class="st0" d="M279.5,567.3c-26.3,0-47.8-21.4-47.8-47.8c0-26.3,21.4-47.8,47.8-47.8c26.3,0,47.8,21.4,47.8,47.8
					C327.3,545.8,305.9,567.3,279.5,567.3z M279.5,488.1c-17.3,0-31.3,14.1-31.3,31.3c0,17.3,14.1,31.3,31.3,31.3
					c17.3,0,31.3-14.1,31.3-31.3C310.9,502.2,296.8,488.1,279.5,488.1z"/>
			</g>
		</g>
		<g>
			<path class="st0" d="M459,401c0-2.8,0.2-5.5,0.6-8.2h-252c-4.5,0-8.2,3.7-8.2,8.2s3.7,8.2,8.2,8.2h252
				C459.2,406.5,459,403.8,459,401z"/>
		</g>
		<g>
			<g>
				<path class="st0" d="M520.5,448.8c-26.3,0-47.8-21.4-47.8-47.8c0-26.3,21.4-47.8,47.8-47.8c26.3,0,47.8,21.4,47.8,47.8
					C568.3,427.4,546.8,448.8,520.5,448.8z M520.5,369.7c-17.3,0-31.3,14.1-31.3,31.3c0,17.3,14.1,31.3,31.3,31.3
					c17.3,0,31.3-14.1,31.3-31.3C551.8,383.7,537.8,369.7,520.5,369.7z"/>
			</g>
		</g>
		<g>
			<path class="st0" d="M592.4,392.8h-11.1c0.4,2.7,0.6,5.4,0.6,8.2c0,2.8-0.2,5.5-0.6,8.2h11.1c4.5,0,8.2-3.7,8.2-8.2
				S597,392.8,592.4,392.8z"/>
		</g>
	</g>
	<g>
		<path class="st0" d="M400,800C179.4,800,0,620.6,0,400S179.4,0,400,0s400,179.4,400,400S620.6,800,400,800z M400,16.8
			C188.7,16.8,16.8,188.7,16.8,400S188.7,783.2,400,783.2S783.2,611.3,783.2,400S611.3,16.8,400,16.8z"/>
	</g>
</g>
</svg>
